<?xml version="1.0" encoding="UTF-8"?>
<svg width="25" height="20" viewBox="0 0 25 20" xmlns="http://www.w3.org/2000/svg">
  <defs>
    <linearGradient id="spGrad" x1="0%" x2="0%" y1="0%" y2="100%">
      <stop offset="0%" stop-color="#5DADE2"/>
      <stop offset="55%" stop-color="#2E86C1"/>
      <stop offset="100%" stop-color="#1A6FA3"/>
    </linearGradient>
  </defs>
  <g transform="translate(1.6 3.6) skewX(-6) scale(0.72)">
    <g transform="translate(1 1)" fill="#0B2E4A">
      <path d="M0,0 H14 V4 H4 V6 H14 V16 H0 V12 H10 V10 H0 Z"/>
      <path fill-rule="evenodd" d="M17,0 H31 V10 H21 V16 H17 Z M21,4 H27 V6 H21 Z"/>
    </g>
    <g fill="url(#spGrad)" stroke="#0B2E4A" stroke-width="0.7">
      <path d="M0,0 H14 V4 H4 V6 H14 V16 H0 V12 H10 V10 H0 Z"/>
      <path fill-rule="evenodd" d="M17,0 H31 V10 H21 V16 H17 Z M21,4 H27 V6 H21 Z"/>
    </g>
  </g>
</svg>
