<?xml version="1.0" encoding="UTF-8"?>
<svg width="512" height="512" viewBox="0 0 512 512" xmlns="http://www.w3.org/2000/svg">
  <defs>
    <linearGradient id="spGrad" x1="0%" x2="0%" y1="0%" y2="100%">
      <stop offset="0%" stop-color="#5DADE2"/>
      <stop offset="55%" stop-color="#2E86C1"/>
      <stop offset="100%" stop-color="#1A6FA3"/>
    </linearGradient>
  </defs>
  <g transform="translate(120 76) skewX(-8) scale(16)">
    <g transform="translate(1.4 1.4)" fill="#0B2E4A">
      <path d="M0,0 H9 V4 H4 V8 H9 V20 H0 V16 H5 V12 H0 Z"/>
      <path fill-rule="evenodd" d="M11,0 H20 V12 H15 V20 H11 Z M15,4 H16 V8 H15 Z"/>
    </g>
    <g fill="url(#spGrad)" stroke="#0B2E4A" stroke-width="0.5">
      <path d="M0,0 H9 V4 H4 V8 H9 V20 H0 V16 H5 V12 H0 Z"/>
      <path fill-rule="evenodd" d="M11,0 H20 V12 H15 V20 H11 Z M15,4 H16 V8 H15 Z"/>
    </g>
  </g>
</svg>
