<svg width="38" height="38" viewBox="0 0 38 38" fill="none" xmlns="http://www.w3.org/2000/svg">
<g id="Group 5101">
<path id="Union" d="M26 8C28.2091 8 30 9.79086 30 12C30 14.2091 28.2091 16 26 16V15C26.3837 15 26.7496 14.9253 27.0869 14.7939L23.2051 10.9121C23.0736 11.2496 23 11.6161 23 12H22C22 9.79086 23.7909 8 26 8ZM24.627 9.33398C24.2879 9.50898 23.9867 9.7461 23.7383 10.0312L27.9678 14.2607C28.2533 14.012 28.49 13.7107 28.665 13.3711L24.627 9.33398ZM26 9C25.9055 9 25.812 9.00415 25.7197 9.0127L28.9863 12.2783C28.9948 12.1867 29 12.0939 29 12C29 10.3431 27.6569 9 26 9Z" fill="#2E86C1"/>
<path id="Union_2" d="M26 30C28.2091 30 30 28.2091 30 26C30 23.7909 28.2091 22 26 22V23C26.3837 23 26.7496 23.0747 27.0869 23.2061L23.2051 27.0879C23.0736 26.7504 23 26.3839 23 26H22C22 28.2091 23.7909 30 26 30ZM24.627 28.666C24.2879 28.491 23.9867 28.2539 23.7383 27.9688L27.9678 23.7393C28.2533 23.988 28.49 24.2893 28.665 24.6289L24.627 28.666ZM26 29C25.9055 29 25.812 28.9959 25.7197 28.9873L28.9863 25.7217C28.9948 25.8133 29 25.9061 29 26C29 27.6569 27.6569 29 26 29Z" fill="#2E86C1"/>
<path id="Union_3" d="M12 8C9.79086 8 8 9.79086 8 12C8 14.2091 9.79086 16 12 16V15C11.6163 15 11.2504 14.9253 10.9131 14.7939L14.7949 10.9121C14.9264 11.2496 15 11.6161 15 12H16C16 9.79086 14.2091 8 12 8ZM13.373 9.33398C13.7121 9.50898 14.0133 9.7461 14.2617 10.0312L10.0322 14.2607C9.74672 14.012 9.51003 13.7107 9.33496 13.3711L13.373 9.33398ZM12 9C12.0945 9 12.188 9.00415 12.2803 9.0127L9.01367 12.2783C9.00524 12.1867 9 12.0939 9 12C9 10.3431 10.3431 9 12 9Z" fill="#2E86C1"/>
<path id="Union_4" d="M12 30C9.79086 30 8 28.2091 8 26C8 23.7909 9.79086 22 12 22V23C11.6163 23 11.2504 23.0747 10.9131 23.2061L14.7949 27.0879C14.9264 26.7504 15 26.3839 15 26H16C16 28.2091 14.2091 30 12 30ZM13.373 28.666C13.7121 28.491 14.0133 28.2539 14.2617 27.9688L10.0322 23.7393C9.74672 23.988 9.51003 24.2893 9.33496 24.6289L13.373 28.666ZM12 29C12.0945 29 12.188 28.9959 12.2803 28.9873L9.01367 25.7217C9.00524 25.8133 9 25.9061 9 26C9 27.6569 10.3431 29 12 29Z" fill="#2E86C1"/>
<path id="Union_5" d="M26 26H12V12H26V26ZM13 25H25V13H13V25Z" fill="#CBCBCB"/>
</g>
</svg>
