<svg width="38" height="38" viewBox="0 0 38 38" fill="none" xmlns="http://www.w3.org/2000/svg">
<g id="Group 5091">
<g id="Group 5087">
<g id="Group 5087_2">
<path id="Union" d="M10.2646 26.7337C11.3855 25.7741 12.9105 25.7538 14.0498 26.6839L14.7031 27.2171C15.3752 27.7655 16.2728 27.764 16.9434 27.2132L17.5 26.7562C18.6892 25.7793 20.303 25.8619 21.4258 26.9192C22.1426 27.5938 23.1783 27.5999 23.8857 26.9339C25.0301 25.8562 26.6587 25.8121 27.8447 26.8274L29.7363 28.4476C30.0237 28.6936 30.0851 29.1632 29.873 29.4964C29.6608 29.829 29.256 29.9 28.9688 29.6546L27.0762 28.0345C26.3649 27.4255 25.3884 27.4517 24.7021 28.098C23.51 29.2206 21.7924 29.1971 20.6094 28.0833C19.9289 27.4426 18.9544 27.3996 18.248 27.9798L17.6924 28.4378C16.5746 29.356 15.0782 29.358 13.958 28.4437L13.3047 27.9105C12.6213 27.3527 11.7066 27.3643 11.0342 27.9398L9.03125 29.6546C8.74387 29.9003 8.33825 29.8293 8.12598 29.4964C7.91393 29.1633 7.97548 28.6936 8.2627 28.4476L10.2646 26.7337ZM10.2646 10.7337C11.3855 9.77408 12.9105 9.75384 14.0498 10.6839L14.7031 11.2171C15.3752 11.7655 16.2728 11.764 16.9434 11.2132L17.5 10.7562C18.6892 9.77934 20.303 9.86189 21.4258 10.9192C22.1426 11.5938 23.1783 11.5999 23.8857 10.9339C25.0301 9.85615 26.6587 9.81211 27.8447 10.8274L29.7363 12.4476C30.0237 12.6936 30.0851 13.1632 29.873 13.4964C29.6608 13.829 29.256 13.9 28.9688 13.6546L27.0762 12.0345C26.3649 11.4255 25.3884 11.4517 24.7021 12.098C23.51 13.2206 21.7924 13.1971 20.6094 12.0833C19.9289 11.4426 18.9544 11.3996 18.248 11.9798L17.6924 12.4378C16.5746 13.356 15.0782 13.358 13.958 12.4437L13.3047 11.9105C12.6213 11.3527 11.7066 11.3643 11.0342 11.9398L9.03125 13.6546C8.74387 13.9003 8.33825 13.8293 8.12598 13.4964C7.91393 13.1633 7.97548 12.6936 8.2627 12.4476L10.2646 10.7337Z" fill="#C8C8C8"/>
<path id="Vector 2 (Stroke)" d="M10.2647 18.7333C11.3855 17.7737 12.9108 17.7535 14.0501 18.6835L14.7031 19.2167C15.3751 19.7654 16.2726 19.7638 16.9433 19.2128L17.5002 18.7558C18.6894 17.779 20.3028 17.8615 21.4255 18.9189C22.1423 19.5938 23.1781 19.5997 23.8857 18.9335C25.0301 17.8558 26.6586 17.8117 27.8447 18.8271L29.737 20.4472C30.0243 20.6932 30.0856 21.1629 29.8735 21.496C29.6612 21.8291 29.256 21.9001 28.9686 21.6542L27.0763 20.0341C26.3651 19.4252 25.3884 19.4513 24.7021 20.0976C23.5098 21.2205 21.7922 21.1971 20.6091 20.0829C19.9287 19.4422 18.9547 19.3992 18.2484 19.9794L17.6923 20.4374C16.5745 21.3557 15.0784 21.3578 13.9583 20.4433L13.3045 19.9101C12.621 19.3523 11.7063 19.3638 11.0339 19.9394L9.03121 21.6542C8.74378 21.9001 8.3386 21.8291 8.12634 21.496C7.91425 21.1629 7.97547 20.6932 8.26283 20.4472L10.2647 18.7333Z" fill="#2E86C1"/>
</g>
</g>
</g>
</svg>
